<svg xmlns="http://www.w3.org/2000/svg" viewBox="0 0 240 240" role="img" aria-label="Seahorse">
  <defs>
    <linearGradient id="sea" x1="0" y1="0" x2="1" y2="1">
      <stop offset="0" stop-color="#5eead4"/>
      <stop offset="1" stop-color="#0ea5e9"/>
    </linearGradient>
  </defs>
  <rect width="240" height="240" rx="24" fill="#0b1220"/>
  <path
    d="M150 44c-16 0-28 12-28 28 0 7 3 14 7 19-8 6-17 17-17 32 0 10 4 20 11 27-10 7-18 20-18 34 0 20 16 36 36 36 10 0 18-4 25-10-3 10-12 18-23 20 11 3 25 1 34-8 9-9 11-23 8-34-2 11-10 20-20 23 10-7 16-19 16-32 0-10-4-19-10-26 11-6 18-18 18-32 0-17-12-31-27-35 3-5 5-10 5-16 0-14-12-26-27-26zm-6 18c6 0 10 5 10 10s-4 10-10 10-10-5-10-10 4-10 10-10z"
    fill="url(#sea)"
    stroke="#0ea5e9"
    stroke-width="2"
    stroke-linecap="round"
    stroke-linejoin="round"
  />
  <circle cx="150" cy="72" r="3" fill="#0b1220"/>
  <path d="M116 104c6 2 14 2 20-1" stroke="#0b1220" stroke-width="3" stroke-linecap="round"/>
</svg>
